<?xml version="1.0" encoding="UTF-8" standalone="no"?>
<!DOCTYPE svg PUBLIC "-//W3C//DTD SVG 1.1//EN"
 "http://www.w3.org/Graphics/SVG/1.1/DTD/svg11.dtd">
<!-- Generated by graphviz version 12.1.2 (0)
 -->
<!-- Pages: 1 -->
<svg width="875pt" height="404pt"
 viewBox="0.00 0.00 875.25 404.00" xmlns="http://www.w3.org/2000/svg" xmlns:xlink="http://www.w3.org/1999/xlink">
<g id="graph0" class="graph" transform="scale(1 1) rotate(0) translate(4 400)">
<polygon fill="white" stroke="none" points="-4,4 -4,-400 871.25,-400 871.25,4 -4,4"/>
<!-- Analytic -->
<g id="node1" class="node">
<title>Analytic</title>
<polygon fill="none" stroke="black" points="94,-108 20.25,-108 20.25,-72 94,-72 94,-108"/>
<text text-anchor="middle" x="57.12" y="-85.33" font-family="Times,serif" font-size="14.00">Analytic</text>
</g>
<!-- Differentiable -->
<g id="node3" class="node">
<title>Differentiable</title>
<polygon fill="none" stroke="black" points="114.25,-180 0,-180 0,-144 114.25,-144 114.25,-180"/>
<text text-anchor="middle" x="57.12" y="-157.32" font-family="Times,serif" font-size="14.00">Differentiable</text>
</g>
<!-- Analytic&#45;&gt;Differentiable -->
<g id="edge1" class="edge">
<title>Analytic&#45;&gt;Differentiable</title>
<path fill="none" stroke="black" d="M57.12,-108.3C57.12,-115.59 57.12,-124.27 57.12,-132.46"/>
<polygon fill="none" stroke="black" points="53.63,-132.38 57.13,-142.38 60.63,-132.38 53.63,-132.38"/>
</g>
<!-- AnalyticReplicated -->
<g id="node2" class="node">
<title>AnalyticReplicated</title>
<polygon fill="none" stroke="black" points="206.88,-36 57.38,-36 57.38,0 206.88,0 206.88,-36"/>
<text text-anchor="middle" x="132.12" y="-13.32" font-family="Times,serif" font-size="14.00">AnalyticReplicated</text>
</g>
<!-- AnalyticReplicated&#45;&gt;Analytic -->
<g id="edge3" class="edge">
<title>AnalyticReplicated&#45;&gt;Analytic</title>
<path fill="none" stroke="black" d="M113.59,-36.3C104.66,-44.63 93.79,-54.78 83.98,-63.93"/>
<polygon fill="none" stroke="black" points="81.74,-61.24 76.82,-70.62 86.52,-66.36 81.74,-61.24"/>
</g>
<!-- DifferentiableReplicated -->
<g id="node4" class="node">
<title>DifferentiableReplicated</title>
<polygon fill="none" stroke="black" points="302.12,-108 112.12,-108 112.12,-72 302.12,-72 302.12,-108"/>
<text text-anchor="middle" x="207.12" y="-85.33" font-family="Times,serif" font-size="14.00">DifferentiableReplicated</text>
</g>
<!-- AnalyticReplicated&#45;&gt;DifferentiableReplicated -->
<g id="edge2" class="edge">
<title>AnalyticReplicated&#45;&gt;DifferentiableReplicated</title>
<path fill="none" stroke="black" d="M150.66,-36.3C159.59,-44.63 170.46,-54.78 180.27,-63.93"/>
<polygon fill="none" stroke="black" points="177.73,-66.36 187.43,-70.62 182.51,-61.24 177.73,-66.36"/>
</g>
<!-- Generative -->
<g id="node6" class="node">
<title>Generative</title>
<polygon fill="none" stroke="black" points="153.5,-252 58.75,-252 58.75,-216 153.5,-216 153.5,-252"/>
<text text-anchor="middle" x="106.12" y="-229.32" font-family="Times,serif" font-size="14.00">Generative</text>
</g>
<!-- Differentiable&#45;&gt;Generative -->
<g id="edge4" class="edge">
<title>Differentiable&#45;&gt;Generative</title>
<path fill="none" stroke="black" d="M69.24,-180.3C74.82,-188.27 81.56,-197.9 87.74,-206.74"/>
<polygon fill="none" stroke="black" points="84.68,-208.47 93.28,-214.66 90.42,-204.46 84.68,-208.47"/>
</g>
<!-- DifferentiableReplicated&#45;&gt;Differentiable -->
<g id="edge6" class="edge">
<title>DifferentiableReplicated&#45;&gt;Differentiable</title>
<path fill="none" stroke="black" d="M169.66,-108.48C149.99,-117.66 125.67,-129.01 104.69,-138.8"/>
<polygon fill="none" stroke="black" points="103.32,-135.58 95.74,-142.98 106.29,-141.92 103.32,-135.58"/>
</g>
<!-- GenerativeReplicated -->
<g id="node7" class="node">
<title>GenerativeReplicated</title>
<polygon fill="none" stroke="black" points="302.38,-180 131.88,-180 131.88,-144 302.38,-144 302.38,-180"/>
<text text-anchor="middle" x="217.12" y="-157.32" font-family="Times,serif" font-size="14.00">GenerativeReplicated</text>
</g>
<!-- DifferentiableReplicated&#45;&gt;GenerativeReplicated -->
<g id="edge5" class="edge">
<title>DifferentiableReplicated&#45;&gt;GenerativeReplicated</title>
<path fill="none" stroke="black" d="M209.6,-108.3C210.65,-115.68 211.91,-124.48 213.09,-132.75"/>
<polygon fill="none" stroke="black" points="209.59,-132.99 214.47,-142.4 216.52,-132 209.59,-132.99"/>
</g>
<!-- ExponentialFamily -->
<g id="node5" class="node">
<title>ExponentialFamily</title>
<polygon fill="none" stroke="black" points="291.88,-324 142.38,-324 142.38,-288 291.88,-288 291.88,-324"/>
<text text-anchor="middle" x="217.12" y="-301.32" font-family="Times,serif" font-size="14.00">ExponentialFamily</text>
</g>
<!-- Manifold -->
<g id="node14" class="node">
<title>Manifold</title>
<polygon fill="none" stroke="gray" stroke-dasharray="5,2" points="256.62,-396 177.62,-396 177.62,-360 256.62,-360 256.62,-396"/>
<text text-anchor="middle" x="217.12" y="-373.32" font-family="Times,serif" font-size="14.00">Manifold</text>
</g>
<!-- ExponentialFamily&#45;&gt;Manifold -->
<g id="edge7" class="edge">
<title>ExponentialFamily&#45;&gt;Manifold</title>
<path fill="none" stroke="gray" stroke-dasharray="5,2" d="M217.12,-324.3C217.12,-331.59 217.12,-340.27 217.12,-348.46"/>
<polygon fill="none" stroke="gray" points="213.63,-348.38 217.13,-358.38 220.63,-348.38 213.63,-348.38"/>
</g>
<!-- Generative&#45;&gt;ExponentialFamily -->
<g id="edge8" class="edge">
<title>Generative&#45;&gt;ExponentialFamily</title>
<path fill="none" stroke="black" d="M133.85,-252.48C147.86,-261.32 165.05,-272.16 180.17,-281.7"/>
<polygon fill="none" stroke="black" points="178.15,-284.56 188.47,-286.93 181.88,-278.64 178.15,-284.56"/>
</g>
<!-- GenerativeReplicated&#45;&gt;Generative -->
<g id="edge10" class="edge">
<title>GenerativeReplicated&#45;&gt;Generative</title>
<path fill="none" stroke="black" d="M189.4,-180.48C175.39,-189.32 158.2,-200.16 143.08,-209.7"/>
<polygon fill="none" stroke="black" points="141.37,-206.64 134.78,-214.93 145.1,-212.56 141.37,-206.64"/>
</g>
<!-- Replicated -->
<g id="node11" class="node">
<title>Replicated</title>
<polygon fill="none" stroke="black" points="263,-252 171.25,-252 171.25,-216 263,-216 263,-252"/>
<text text-anchor="middle" x="217.12" y="-229.32" font-family="Times,serif" font-size="14.00">Replicated</text>
</g>
<!-- GenerativeReplicated&#45;&gt;Replicated -->
<g id="edge9" class="edge">
<title>GenerativeReplicated&#45;&gt;Replicated</title>
<path fill="none" stroke="black" d="M217.12,-180.3C217.12,-187.59 217.12,-196.27 217.12,-204.46"/>
<polygon fill="none" stroke="black" points="213.63,-204.38 217.13,-214.38 220.63,-204.38 213.63,-204.38"/>
</g>
<!-- LocationShape -->
<g id="node8" class="node">
<title>LocationShape</title>
<polygon fill="none" stroke="black" points="401.62,-252 280.62,-252 280.62,-216 401.62,-216 401.62,-252"/>
<text text-anchor="middle" x="341.12" y="-229.32" font-family="Times,serif" font-size="14.00">LocationShape</text>
</g>
<!-- LocationShape&#45;&gt;ExponentialFamily -->
<g id="edge11" class="edge">
<title>LocationShape&#45;&gt;ExponentialFamily</title>
<path fill="none" stroke="black" d="M310.15,-252.48C294.2,-261.49 274.56,-272.58 257.44,-282.24"/>
<polygon fill="none" stroke="black" points="256.01,-279.03 249.02,-287 259.45,-285.13 256.01,-279.03"/>
</g>
<!-- Pair -->
<g id="node15" class="node">
<title>Pair</title>
<polygon fill="none" stroke="gray" stroke-dasharray="5,2" points="368.12,-324 314.12,-324 314.12,-288 368.12,-288 368.12,-324"/>
<text text-anchor="middle" x="341.12" y="-301.32" font-family="Times,serif" font-size="14.00">Pair</text>
</g>
<!-- LocationShape&#45;&gt;Pair -->
<g id="edge12" class="edge">
<title>LocationShape&#45;&gt;Pair</title>
<path fill="none" stroke="gray" stroke-dasharray="5,2" d="M341.12,-252.3C341.12,-259.59 341.12,-268.27 341.12,-276.46"/>
<polygon fill="none" stroke="gray" points="337.63,-276.38 341.13,-286.38 344.63,-276.38 337.63,-276.38"/>
</g>
<!-- LocationSubspace -->
<g id="node9" class="node">
<title>LocationSubspace</title>
<polygon fill="none" stroke="black" points="531.62,-324 386.62,-324 386.62,-288 531.62,-288 531.62,-324"/>
<text text-anchor="middle" x="459.12" y="-301.32" font-family="Times,serif" font-size="14.00">LocationSubspace</text>
</g>
<!-- Subspace -->
<g id="node13" class="node">
<title>Subspace</title>
<polygon fill="none" stroke="gray" stroke-dasharray="5,2" points="601.25,-396 517,-396 517,-360 601.25,-360 601.25,-396"/>
<text text-anchor="middle" x="559.12" y="-373.32" font-family="Times,serif" font-size="14.00">Subspace</text>
</g>
<!-- LocationSubspace&#45;&gt;Subspace -->
<g id="edge13" class="edge">
<title>LocationSubspace&#45;&gt;Subspace</title>
<path fill="none" stroke="gray" stroke-dasharray="5,2" d="M484.1,-324.48C496.48,-333.15 511.63,-343.75 525.05,-353.15"/>
<polygon fill="none" stroke="gray" points="523.03,-356 533.23,-358.87 527.04,-350.27 523.03,-356"/>
</g>
<!-- Mean -->
<g id="node10" class="node">
<title>Mean</title>
<polygon fill="none" stroke="black" points="844,-324 788.25,-324 788.25,-288 844,-288 844,-324"/>
<text text-anchor="middle" x="816.12" y="-301.32" font-family="Times,serif" font-size="14.00">Mean</text>
</g>
<!-- Coordinates -->
<g id="node16" class="node">
<title>Coordinates</title>
<polygon fill="none" stroke="gray" stroke-dasharray="5,2" points="867.25,-396 765,-396 765,-360 867.25,-360 867.25,-396"/>
<text text-anchor="middle" x="816.12" y="-373.32" font-family="Times,serif" font-size="14.00">Coordinates</text>
</g>
<!-- Mean&#45;&gt;Coordinates -->
<g id="edge14" class="edge">
<title>Mean&#45;&gt;Coordinates</title>
<path fill="none" stroke="gray" stroke-dasharray="5,2" d="M816.12,-324.3C816.12,-331.59 816.12,-340.27 816.12,-348.46"/>
<polygon fill="none" stroke="gray" points="812.63,-348.38 816.13,-358.38 819.63,-348.38 812.63,-348.38"/>
</g>
<!-- Replicated&#45;&gt;ExponentialFamily -->
<g id="edge15" class="edge">
<title>Replicated&#45;&gt;ExponentialFamily</title>
<path fill="none" stroke="black" d="M217.12,-252.3C217.12,-259.59 217.12,-268.27 217.12,-276.46"/>
<polygon fill="none" stroke="black" points="213.63,-276.38 217.13,-286.38 220.63,-276.38 213.63,-276.38"/>
</g>
<!-- ReplicatedLocationSubspace -->
<g id="node12" class="node">
<title>ReplicatedLocationSubspace</title>
<polygon fill="none" stroke="black" points="770.5,-324 549.75,-324 549.75,-288 770.5,-288 770.5,-324"/>
<text text-anchor="middle" x="660.12" y="-301.32" font-family="Times,serif" font-size="14.00">ReplicatedLocationSubspace</text>
</g>
<!-- ReplicatedLocationSubspace&#45;&gt;Subspace -->
<g id="edge16" class="edge">
<title>ReplicatedLocationSubspace&#45;&gt;Subspace</title>
<path fill="none" stroke="gray" stroke-dasharray="5,2" d="M634.9,-324.48C622.27,-333.24 606.8,-343.96 593.14,-353.42"/>
<polygon fill="none" stroke="gray" points="591.5,-350.3 585.27,-358.88 595.49,-356.06 591.5,-350.3"/>
</g>
</g>
</svg>
