<?xml version="1.0" encoding="UTF-8" standalone="no"?>
<!DOCTYPE svg PUBLIC "-//W3C//DTD SVG 1.1//EN"
 "http://www.w3.org/Graphics/SVG/1.1/DTD/svg11.dtd">
<!-- Generated by graphviz version 12.1.2 (0)
 -->
<!-- Pages: 1 -->
<svg width="316pt" height="476pt"
 viewBox="0.00 0.00 316.12 476.00" xmlns="http://www.w3.org/2000/svg" xmlns:xlink="http://www.w3.org/1999/xlink">
<g id="graph0" class="graph" transform="scale(1 1) rotate(0) translate(4 472)">
<polygon fill="white" stroke="none" points="-4,4 -4,-472 312.12,-472 312.12,4 -4,4"/>
<!-- AnalyticConjugated -->
<g id="node1" class="node">
<title>AnalyticConjugated</title>
<polygon fill="none" stroke="black" points="251.75,-36 96.25,-36 96.25,0 251.75,0 251.75,-36"/>
<text text-anchor="middle" x="174" y="-13.32" font-family="Times,serif" font-size="14.00">AnalyticConjugated</text>
</g>
<!-- DifferentiableConjugated -->
<g id="node3" class="node">
<title>DifferentiableConjugated</title>
<polygon fill="none" stroke="black" points="196,-108 0,-108 0,-72 196,-72 196,-108"/>
<text text-anchor="middle" x="98" y="-85.33" font-family="Times,serif" font-size="14.00">DifferentiableConjugated</text>
</g>
<!-- AnalyticConjugated&#45;&gt;DifferentiableConjugated -->
<g id="edge1" class="edge">
<title>AnalyticConjugated&#45;&gt;DifferentiableConjugated</title>
<path fill="none" stroke="black" d="M155.21,-36.3C146.17,-44.63 135.16,-54.78 125.22,-63.93"/>
<polygon fill="none" stroke="black" points="122.93,-61.28 117.95,-70.63 127.67,-66.43 122.93,-61.28"/>
</g>
<!-- Analytic -->
<g id="node8" class="node">
<title>Analytic</title>
<polygon fill="none" stroke="gray" stroke-dasharray="5,2" points="287.88,-108 214.12,-108 214.12,-72 287.88,-72 287.88,-108"/>
<text text-anchor="middle" x="251" y="-85.33" font-family="Times,serif" font-size="14.00">Analytic</text>
</g>
<!-- AnalyticConjugated&#45;&gt;Analytic -->
<g id="edge2" class="edge">
<title>AnalyticConjugated&#45;&gt;Analytic</title>
<path fill="none" stroke="gray" stroke-dasharray="5,2" d="M193.03,-36.3C202.2,-44.63 213.35,-54.78 223.43,-63.93"/>
<polygon fill="none" stroke="gray" points="221.04,-66.5 230.8,-70.63 225.75,-61.32 221.04,-66.5"/>
</g>
<!-- Conjugated -->
<g id="node2" class="node">
<title>Conjugated</title>
<polygon fill="none" stroke="black" points="160.88,-324 63.12,-324 63.12,-288 160.88,-288 160.88,-324"/>
<text text-anchor="middle" x="112" y="-301.32" font-family="Times,serif" font-size="14.00">Conjugated</text>
</g>
<!-- Harmonium -->
<g id="node6" class="node">
<title>Harmonium</title>
<polygon fill="none" stroke="black" points="162.38,-396 61.62,-396 61.62,-360 162.38,-360 162.38,-396"/>
<text text-anchor="middle" x="112" y="-373.32" font-family="Times,serif" font-size="14.00">Harmonium</text>
</g>
<!-- Conjugated&#45;&gt;Harmonium -->
<g id="edge3" class="edge">
<title>Conjugated&#45;&gt;Harmonium</title>
<path fill="none" stroke="black" d="M112,-324.3C112,-331.59 112,-340.27 112,-348.46"/>
<polygon fill="none" stroke="black" points="108.5,-348.38 112,-358.38 115.5,-348.38 108.5,-348.38"/>
</g>
<!-- DifferentiableLatent -->
<g id="node4" class="node">
<title>DifferentiableLatent</title>
<polygon fill="none" stroke="black" points="175.38,-180 14.62,-180 14.62,-144 175.38,-144 175.38,-180"/>
<text text-anchor="middle" x="95" y="-157.32" font-family="Times,serif" font-size="14.00">DifferentiableLatent</text>
</g>
<!-- DifferentiableConjugated&#45;&gt;DifferentiableLatent -->
<g id="edge4" class="edge">
<title>DifferentiableConjugated&#45;&gt;DifferentiableLatent</title>
<path fill="none" stroke="black" d="M97.26,-108.3C96.95,-115.59 96.57,-124.27 96.22,-132.46"/>
<polygon fill="none" stroke="black" points="92.73,-132.24 95.8,-142.38 99.72,-132.54 92.73,-132.24"/>
</g>
<!-- Differentiable -->
<g id="node11" class="node">
<title>Differentiable</title>
<polygon fill="none" stroke="gray" stroke-dasharray="5,2" points="308.12,-180 193.88,-180 193.88,-144 308.12,-144 308.12,-180"/>
<text text-anchor="middle" x="251" y="-157.32" font-family="Times,serif" font-size="14.00">Differentiable</text>
</g>
<!-- DifferentiableConjugated&#45;&gt;Differentiable -->
<g id="edge5" class="edge">
<title>DifferentiableConjugated&#45;&gt;Differentiable</title>
<path fill="none" stroke="gray" stroke-dasharray="5,2" d="M136.21,-108.48C156.37,-117.71 181.31,-129.11 202.78,-138.94"/>
<polygon fill="none" stroke="gray" points="201.08,-142.01 211.63,-142.99 203.99,-135.65 201.08,-142.01"/>
</g>
<!-- GenerativeConjugated -->
<g id="node5" class="node">
<title>GenerativeConjugated</title>
<polygon fill="none" stroke="black" points="200.25,-252 23.75,-252 23.75,-216 200.25,-216 200.25,-252"/>
<text text-anchor="middle" x="112" y="-229.32" font-family="Times,serif" font-size="14.00">GenerativeConjugated</text>
</g>
<!-- DifferentiableLatent&#45;&gt;GenerativeConjugated -->
<g id="edge6" class="edge">
<title>DifferentiableLatent&#45;&gt;GenerativeConjugated</title>
<path fill="none" stroke="black" d="M99.2,-180.3C100.99,-187.68 103.13,-196.48 105.14,-204.75"/>
<polygon fill="none" stroke="black" points="101.73,-205.53 107.49,-214.42 108.53,-203.88 101.73,-205.53"/>
</g>
<!-- GenerativeConjugated&#45;&gt;Conjugated -->
<g id="edge7" class="edge">
<title>GenerativeConjugated&#45;&gt;Conjugated</title>
<path fill="none" stroke="black" d="M112,-252.3C112,-259.59 112,-268.27 112,-276.46"/>
<polygon fill="none" stroke="black" points="108.5,-276.38 112,-286.38 115.5,-276.38 108.5,-276.38"/>
</g>
<!-- Generative -->
<g id="node9" class="node">
<title>Generative</title>
<polygon fill="none" stroke="gray" stroke-dasharray="5,2" points="277.38,-324 182.62,-324 182.62,-288 277.38,-288 277.38,-324"/>
<text text-anchor="middle" x="230" y="-301.32" font-family="Times,serif" font-size="14.00">Generative</text>
</g>
<!-- GenerativeConjugated&#45;&gt;Generative -->
<g id="edge8" class="edge">
<title>GenerativeConjugated&#45;&gt;Generative</title>
<path fill="none" stroke="gray" stroke-dasharray="5,2" d="M141.47,-252.48C156.51,-261.4 174.99,-272.37 191.18,-281.97"/>
<polygon fill="none" stroke="gray" points="189.22,-284.88 199.6,-286.97 192.79,-278.85 189.22,-284.88"/>
</g>
<!-- Triple -->
<g id="node7" class="node">
<title>Triple</title>
<polygon fill="none" stroke="gray" stroke-dasharray="5,2" points="137,-468 79,-468 79,-432 137,-432 137,-468"/>
<text text-anchor="middle" x="108" y="-445.32" font-family="Times,serif" font-size="14.00">Triple</text>
</g>
<!-- Harmonium&#45;&gt;Triple -->
<g id="edge10" class="edge">
<title>Harmonium&#45;&gt;Triple</title>
<path fill="none" stroke="gray" stroke-dasharray="5,2" d="M111.01,-396.3C110.59,-403.59 110.1,-412.27 109.63,-420.46"/>
<polygon fill="none" stroke="gray" points="106.14,-420.2 109.06,-430.38 113.13,-420.6 106.14,-420.2"/>
</g>
<!-- ExponentialFamily -->
<g id="node10" class="node">
<title>ExponentialFamily</title>
<polygon fill="none" stroke="gray" stroke-dasharray="5,2" points="304.75,-468 155.25,-468 155.25,-432 304.75,-432 304.75,-468"/>
<text text-anchor="middle" x="230" y="-445.32" font-family="Times,serif" font-size="14.00">ExponentialFamily</text>
</g>
<!-- Harmonium&#45;&gt;ExponentialFamily -->
<g id="edge9" class="edge">
<title>Harmonium&#45;&gt;ExponentialFamily</title>
<path fill="none" stroke="gray" stroke-dasharray="5,2" d="M141.47,-396.48C156.51,-405.4 174.99,-416.37 191.18,-425.97"/>
<polygon fill="none" stroke="gray" points="189.22,-428.88 199.6,-430.97 192.79,-422.85 189.22,-428.88"/>
</g>
<!-- Analytic&#45;&gt;Differentiable -->
<g id="edge11" class="edge">
<title>Analytic&#45;&gt;Differentiable</title>
<path fill="none" stroke="gray" stroke-dasharray="5,2" d="M251,-108.3C251,-115.59 251,-124.27 251,-132.46"/>
<polygon fill="none" stroke="gray" points="247.5,-132.38 251,-142.38 254.5,-132.38 247.5,-132.38"/>
</g>
<!-- Generative&#45;&gt;ExponentialFamily -->
<g id="edge13" class="edge">
<title>Generative&#45;&gt;ExponentialFamily</title>
<path fill="none" stroke="gray" stroke-dasharray="5,2" d="M230,-324.41C230,-348.39 230,-391.86 230,-420.58"/>
<polygon fill="none" stroke="gray" points="226.5,-420.38 230,-430.38 233.5,-420.38 226.5,-420.38"/>
</g>
<!-- Differentiable&#45;&gt;Generative -->
<g id="edge12" class="edge">
<title>Differentiable&#45;&gt;Generative</title>
<path fill="none" stroke="gray" stroke-dasharray="5,2" d="M248.42,-180.41C244.88,-204.39 238.45,-247.86 234.2,-276.58"/>
<polygon fill="none" stroke="gray" points="230.75,-275.99 232.75,-286.39 237.68,-277.01 230.75,-275.99"/>
</g>
</g>
</svg>
