<?xml version="1.0" encoding="UTF-8" standalone="no"?>
<!DOCTYPE svg PUBLIC "-//W3C//DTD SVG 1.1//EN"
 "http://www.w3.org/Graphics/SVG/1.1/DTD/svg11.dtd">
<!-- Generated by graphviz version 12.1.2 (0)
 -->
<!-- Pages: 1 -->
<svg width="454pt" height="404pt"
 viewBox="0.00 0.00 454.25 404.00" xmlns="http://www.w3.org/2000/svg" xmlns:xlink="http://www.w3.org/1999/xlink">
<g id="graph0" class="graph" transform="scale(1 1) rotate(0) translate(4 400)">
<polygon fill="white" stroke="none" points="-4,4 -4,-400 450.25,-400 450.25,4 -4,4"/>
<!-- AnalyticConjugated -->
<g id="node1" class="node">
<title>AnalyticConjugated</title>
<polygon fill="none" stroke="black" points="305.88,-36 150.38,-36 150.38,0 305.88,0 305.88,-36"/>
<text text-anchor="middle" x="228.12" y="-13.32" font-family="Times,serif" font-size="14.00">AnalyticConjugated</text>
</g>
<!-- AnalyticLatent -->
<g id="node2" class="node">
<title>AnalyticLatent</title>
<polygon fill="none" stroke="black" points="120.25,-180 0,-180 0,-144 120.25,-144 120.25,-180"/>
<text text-anchor="middle" x="60.12" y="-157.32" font-family="Times,serif" font-size="14.00">AnalyticLatent</text>
</g>
<!-- AnalyticConjugated&#45;&gt;AnalyticLatent -->
<g id="edge2" class="edge">
<title>AnalyticConjugated&#45;&gt;AnalyticLatent</title>
<path fill="none" stroke="black" d="M180.22,-36.47C160.52,-45.16 138.34,-57.05 121.12,-72 101.19,-89.3 84.72,-114.52 73.94,-133.7"/>
<polygon fill="none" stroke="black" points="70.96,-131.85 69.27,-142.31 77.11,-135.19 70.96,-131.85"/>
</g>
<!-- DifferentiableConjugated -->
<g id="node4" class="node">
<title>DifferentiableConjugated</title>
<polygon fill="none" stroke="black" points="326.12,-108 130.12,-108 130.12,-72 326.12,-72 326.12,-108"/>
<text text-anchor="middle" x="228.12" y="-85.33" font-family="Times,serif" font-size="14.00">DifferentiableConjugated</text>
</g>
<!-- AnalyticConjugated&#45;&gt;DifferentiableConjugated -->
<g id="edge1" class="edge">
<title>AnalyticConjugated&#45;&gt;DifferentiableConjugated</title>
<path fill="none" stroke="black" d="M228.12,-36.3C228.12,-43.59 228.12,-52.27 228.12,-60.46"/>
<polygon fill="none" stroke="black" points="224.63,-60.38 228.13,-70.38 231.63,-60.38 224.63,-60.38"/>
</g>
<!-- Analytic -->
<g id="node11" class="node">
<title>Analytic</title>
<polygon fill="none" stroke="gray" stroke-dasharray="5,2" points="423,-108 349.25,-108 349.25,-72 423,-72 423,-108"/>
<text text-anchor="middle" x="386.12" y="-85.33" font-family="Times,serif" font-size="14.00">Analytic</text>
</g>
<!-- AnalyticConjugated&#45;&gt;Analytic -->
<g id="edge3" class="edge">
<title>AnalyticConjugated&#45;&gt;Analytic</title>
<path fill="none" stroke="gray" stroke-dasharray="5,2" d="M267.59,-36.48C289.05,-45.99 315.76,-57.82 338.39,-67.85"/>
<polygon fill="none" stroke="gray" points="336.85,-71 347.41,-71.85 339.68,-64.6 336.85,-71"/>
</g>
<!-- Harmonium -->
<g id="node6" class="node">
<title>Harmonium</title>
<polygon fill="none" stroke="black" points="251.5,-324 150.75,-324 150.75,-288 251.5,-288 251.5,-324"/>
<text text-anchor="middle" x="201.12" y="-301.32" font-family="Times,serif" font-size="14.00">Harmonium</text>
</g>
<!-- AnalyticLatent&#45;&gt;Harmonium -->
<g id="edge4" class="edge">
<title>AnalyticLatent&#45;&gt;Harmonium</title>
<path fill="none" stroke="black" d="M76.17,-180.31C93.07,-198.43 120.59,-227.58 145.12,-252 154.42,-261.26 164.81,-271.19 174.09,-279.93"/>
<polygon fill="none" stroke="black" points="171.44,-282.25 181.13,-286.53 176.23,-277.14 171.44,-282.25"/>
</g>
<!-- Conjugated -->
<g id="node3" class="node">
<title>Conjugated</title>
<polygon fill="none" stroke="black" points="252,-252 154.25,-252 154.25,-216 252,-216 252,-252"/>
<text text-anchor="middle" x="203.12" y="-229.32" font-family="Times,serif" font-size="14.00">Conjugated</text>
</g>
<!-- Conjugated&#45;&gt;Harmonium -->
<g id="edge5" class="edge">
<title>Conjugated&#45;&gt;Harmonium</title>
<path fill="none" stroke="black" d="M202.63,-252.3C202.42,-259.59 202.17,-268.27 201.94,-276.46"/>
<polygon fill="none" stroke="black" points="198.44,-276.29 201.66,-286.38 205.44,-276.49 198.44,-276.29"/>
</g>
<!-- GenerativeConjugated -->
<g id="node5" class="node">
<title>GenerativeConjugated</title>
<polygon fill="none" stroke="black" points="314.38,-180 137.88,-180 137.88,-144 314.38,-144 314.38,-180"/>
<text text-anchor="middle" x="226.12" y="-157.32" font-family="Times,serif" font-size="14.00">GenerativeConjugated</text>
</g>
<!-- DifferentiableConjugated&#45;&gt;GenerativeConjugated -->
<g id="edge6" class="edge">
<title>DifferentiableConjugated&#45;&gt;GenerativeConjugated</title>
<path fill="none" stroke="black" d="M227.63,-108.3C227.42,-115.59 227.17,-124.27 226.94,-132.46"/>
<polygon fill="none" stroke="black" points="223.44,-132.29 226.66,-142.38 230.44,-132.49 223.44,-132.29"/>
</g>
<!-- Differentiable -->
<g id="node7" class="node">
<title>Differentiable</title>
<polygon fill="none" stroke="gray" stroke-dasharray="5,2" points="446.25,-180 332,-180 332,-144 446.25,-144 446.25,-180"/>
<text text-anchor="middle" x="389.12" y="-157.32" font-family="Times,serif" font-size="14.00">Differentiable</text>
</g>
<!-- DifferentiableConjugated&#45;&gt;Differentiable -->
<g id="edge7" class="edge">
<title>DifferentiableConjugated&#45;&gt;Differentiable</title>
<path fill="none" stroke="gray" stroke-dasharray="5,2" d="M268.34,-108.48C289.64,-117.75 316.03,-129.22 338.69,-139.07"/>
<polygon fill="none" stroke="gray" points="337.19,-142.24 347.76,-143.01 339.98,-135.82 337.19,-142.24"/>
</g>
<!-- GenerativeConjugated&#45;&gt;Conjugated -->
<g id="edge8" class="edge">
<title>GenerativeConjugated&#45;&gt;Conjugated</title>
<path fill="none" stroke="black" d="M220.44,-180.3C217.99,-187.76 215.06,-196.68 212.31,-205.03"/>
<polygon fill="none" stroke="black" points="209.01,-203.86 209.22,-214.46 215.66,-206.05 209.01,-203.86"/>
</g>
<!-- Generative -->
<g id="node10" class="node">
<title>Generative</title>
<polygon fill="none" stroke="gray" stroke-dasharray="5,2" points="368.5,-252 273.75,-252 273.75,-216 368.5,-216 368.5,-252"/>
<text text-anchor="middle" x="321.12" y="-229.32" font-family="Times,serif" font-size="14.00">Generative</text>
</g>
<!-- GenerativeConjugated&#45;&gt;Generative -->
<g id="edge9" class="edge">
<title>GenerativeConjugated&#45;&gt;Generative</title>
<path fill="none" stroke="gray" stroke-dasharray="5,2" d="M249.61,-180.3C261.37,-188.97 275.8,-199.6 288.6,-209.04"/>
<polygon fill="none" stroke="gray" points="286.24,-211.64 296.36,-214.76 290.39,-206.01 286.24,-211.64"/>
</g>
<!-- ExponentialFamily -->
<g id="node8" class="node">
<title>ExponentialFamily</title>
<polygon fill="none" stroke="gray" stroke-dasharray="5,2" points="395.88,-396 246.38,-396 246.38,-360 395.88,-360 395.88,-396"/>
<text text-anchor="middle" x="321.12" y="-373.32" font-family="Times,serif" font-size="14.00">ExponentialFamily</text>
</g>
<!-- Harmonium&#45;&gt;ExponentialFamily -->
<g id="edge10" class="edge">
<title>Harmonium&#45;&gt;ExponentialFamily</title>
<path fill="none" stroke="gray" stroke-dasharray="5,2" d="M231.1,-324.48C246.39,-333.4 265.19,-344.37 281.64,-353.97"/>
<polygon fill="none" stroke="gray" points="279.83,-356.96 290.23,-358.98 283.35,-350.91 279.83,-356.96"/>
</g>
<!-- Triple -->
<g id="node9" class="node">
<title>Triple</title>
<polygon fill="none" stroke="gray" stroke-dasharray="5,2" points="228.12,-396 170.12,-396 170.12,-360 228.12,-360 228.12,-396"/>
<text text-anchor="middle" x="199.12" y="-373.32" font-family="Times,serif" font-size="14.00">Triple</text>
</g>
<!-- Harmonium&#45;&gt;Triple -->
<g id="edge11" class="edge">
<title>Harmonium&#45;&gt;Triple</title>
<path fill="none" stroke="gray" stroke-dasharray="5,2" d="M200.63,-324.3C200.42,-331.59 200.17,-340.27 199.94,-348.46"/>
<polygon fill="none" stroke="gray" points="196.44,-348.29 199.66,-358.38 203.44,-348.49 196.44,-348.29"/>
</g>
<!-- Differentiable&#45;&gt;Generative -->
<g id="edge13" class="edge">
<title>Differentiable&#45;&gt;Generative</title>
<path fill="none" stroke="gray" stroke-dasharray="5,2" d="M372.32,-180.3C364.25,-188.61 354.42,-198.72 345.55,-207.86"/>
<polygon fill="none" stroke="gray" points="343.25,-205.2 338.8,-214.81 348.27,-210.08 343.25,-205.2"/>
</g>
<!-- Generative&#45;&gt;ExponentialFamily -->
<g id="edge14" class="edge">
<title>Generative&#45;&gt;ExponentialFamily</title>
<path fill="none" stroke="gray" stroke-dasharray="5,2" d="M321.12,-252.41C321.12,-276.39 321.12,-319.86 321.12,-348.58"/>
<polygon fill="none" stroke="gray" points="317.63,-348.38 321.13,-358.38 324.63,-348.38 317.63,-348.38"/>
</g>
<!-- Analytic&#45;&gt;Differentiable -->
<g id="edge12" class="edge">
<title>Analytic&#45;&gt;Differentiable</title>
<path fill="none" stroke="gray" stroke-dasharray="5,2" d="M386.87,-108.3C387.18,-115.59 387.55,-124.27 387.9,-132.46"/>
<polygon fill="none" stroke="gray" points="384.4,-132.54 388.33,-142.38 391.4,-132.24 384.4,-132.54"/>
</g>
</g>
</svg>
