<?xml version="1.0" encoding="UTF-8" standalone="no"?>
<!DOCTYPE svg PUBLIC "-//W3C//DTD SVG 1.1//EN"
 "http://www.w3.org/Graphics/SVG/1.1/DTD/svg11.dtd">
<!-- Generated by graphviz version 12.1.2 (0)
 -->
<!-- Pages: 1 -->
<svg width="384pt" height="188pt"
 viewBox="0.00 0.00 383.75 188.00" xmlns="http://www.w3.org/2000/svg" xmlns:xlink="http://www.w3.org/1999/xlink">
<g id="graph0" class="graph" transform="scale(1 1) rotate(0) translate(4 184)">
<polygon fill="white" stroke="none" points="-4,4 -4,-184 379.75,-184 379.75,4 -4,4"/>
<!-- AnalyticHierarchical -->
<g id="node1" class="node">
<title>AnalyticHierarchical</title>
<polygon fill="none" stroke="black" points="279.75,-36 118.25,-36 118.25,0 279.75,0 279.75,-36"/>
<text text-anchor="middle" x="199" y="-13.32" font-family="Times,serif" font-size="14.00">AnalyticHierarchical</text>
</g>
<!-- DifferentiableHierarchical -->
<g id="node2" class="node">
<title>DifferentiableHierarchical</title>
<polygon fill="none" stroke="black" points="202,-108 0,-108 0,-72 202,-72 202,-108"/>
<text text-anchor="middle" x="101" y="-85.33" font-family="Times,serif" font-size="14.00">DifferentiableHierarchical</text>
</g>
<!-- AnalyticHierarchical&#45;&gt;DifferentiableHierarchical -->
<g id="edge1" class="edge">
<title>AnalyticHierarchical&#45;&gt;DifferentiableHierarchical</title>
<path fill="none" stroke="black" d="M174.52,-36.48C162.39,-45.15 147.55,-55.75 134.39,-65.15"/>
<polygon fill="none" stroke="black" points="132.5,-62.2 126.4,-70.86 136.57,-67.9 132.5,-62.2"/>
</g>
<!-- AnalyticConjugated -->
<g id="node4" class="node">
<title>AnalyticConjugated</title>
<polygon fill="none" stroke="gray" stroke-dasharray="5,2" points="375.75,-108 220.25,-108 220.25,-72 375.75,-72 375.75,-108"/>
<text text-anchor="middle" x="298" y="-85.33" font-family="Times,serif" font-size="14.00">AnalyticConjugated</text>
</g>
<!-- AnalyticHierarchical&#45;&gt;AnalyticConjugated -->
<g id="edge2" class="edge">
<title>AnalyticHierarchical&#45;&gt;AnalyticConjugated</title>
<path fill="none" stroke="gray" stroke-dasharray="5,2" d="M223.73,-36.48C235.99,-45.15 250.98,-55.75 264.27,-65.15"/>
<polygon fill="none" stroke="gray" points="262.17,-67.95 272.35,-70.87 266.21,-62.23 262.17,-67.95"/>
</g>
<!-- DifferentiableConjugated -->
<g id="node3" class="node">
<title>DifferentiableConjugated</title>
<polygon fill="none" stroke="gray" stroke-dasharray="5,2" points="297,-180 101,-180 101,-144 297,-144 297,-180"/>
<text text-anchor="middle" x="199" y="-157.32" font-family="Times,serif" font-size="14.00">DifferentiableConjugated</text>
</g>
<!-- DifferentiableHierarchical&#45;&gt;DifferentiableConjugated -->
<g id="edge3" class="edge">
<title>DifferentiableHierarchical&#45;&gt;DifferentiableConjugated</title>
<path fill="none" stroke="gray" stroke-dasharray="5,2" d="M125.48,-108.48C137.61,-117.15 152.45,-127.75 165.61,-137.15"/>
<polygon fill="none" stroke="gray" points="163.43,-139.9 173.6,-142.86 167.5,-134.2 163.43,-139.9"/>
</g>
<!-- AnalyticConjugated&#45;&gt;DifferentiableConjugated -->
<g id="edge4" class="edge">
<title>AnalyticConjugated&#45;&gt;DifferentiableConjugated</title>
<path fill="none" stroke="gray" stroke-dasharray="5,2" d="M273.27,-108.48C261.01,-117.15 246.02,-127.75 232.73,-137.15"/>
<polygon fill="none" stroke="gray" points="230.79,-134.23 224.65,-142.87 234.83,-139.95 230.79,-134.23"/>
</g>
</g>
</svg>
