<?xml version="1.0" encoding="UTF-8" standalone="no"?>
<!DOCTYPE svg PUBLIC "-//W3C//DTD SVG 1.1//EN"
 "http://www.w3.org/Graphics/SVG/1.1/DTD/svg11.dtd">
<!-- Generated by graphviz version 12.1.2 (0)
 -->
<!-- Pages: 1 -->
<svg width="335pt" height="188pt"
 viewBox="0.00 0.00 334.50 188.00" xmlns="http://www.w3.org/2000/svg" xmlns:xlink="http://www.w3.org/1999/xlink">
<g id="graph0" class="graph" transform="scale(1 1) rotate(0) translate(4 184)">
<polygon fill="white" stroke="none" points="-4,4 -4,-184 330.5,-184 330.5,4 -4,4"/>
<!-- CoMPoisson -->
<g id="node1" class="node">
<title>CoMPoisson</title>
<polygon fill="none" stroke="black" points="204.38,-36 101.38,-36 101.38,0 204.38,0 204.38,-36"/>
<text text-anchor="middle" x="152.88" y="-13.32" font-family="Times,serif" font-size="14.00">CoMPoisson</text>
</g>
<!-- Differentiable -->
<g id="node5" class="node">
<title>Differentiable</title>
<polygon fill="none" stroke="gray" stroke-dasharray="5,2" points="127,-180 12.75,-180 12.75,-144 127,-144 127,-180"/>
<text text-anchor="middle" x="69.88" y="-157.32" font-family="Times,serif" font-size="14.00">Differentiable</text>
</g>
<!-- CoMPoisson&#45;&gt;Differentiable -->
<g id="edge2" class="edge">
<title>CoMPoisson&#45;&gt;Differentiable</title>
<path fill="none" stroke="gray" stroke-dasharray="5,2" d="M142.82,-36.18C136.75,-46.56 128.87,-60.04 121.88,-72 109.72,-92.79 95.97,-116.32 85.67,-133.96"/>
<polygon fill="none" stroke="gray" points="82.82,-131.9 80.8,-142.3 88.87,-135.43 82.82,-131.9"/>
</g>
<!-- LocationShape -->
<g id="node6" class="node">
<title>LocationShape</title>
<polygon fill="none" stroke="gray" stroke-dasharray="5,2" points="251.38,-108 130.38,-108 130.38,-72 251.38,-72 251.38,-108"/>
<text text-anchor="middle" x="190.88" y="-85.33" font-family="Times,serif" font-size="14.00">LocationShape</text>
</g>
<!-- CoMPoisson&#45;&gt;LocationShape -->
<g id="edge1" class="edge">
<title>CoMPoisson&#45;&gt;LocationShape</title>
<path fill="none" stroke="gray" stroke-dasharray="5,2" d="M162.27,-36.3C166.46,-44.02 171.49,-53.29 176.16,-61.89"/>
<polygon fill="none" stroke="gray" points="173.02,-63.45 180.87,-70.57 179.17,-60.11 173.02,-63.45"/>
</g>
<!-- CoMShape -->
<g id="node2" class="node">
<title>CoMShape</title>
<polygon fill="none" stroke="black" points="326.5,-36 233.25,-36 233.25,0 326.5,0 326.5,-36"/>
<text text-anchor="middle" x="279.88" y="-13.32" font-family="Times,serif" font-size="14.00">CoMShape</text>
</g>
<!-- ExponentialFamily -->
<g id="node7" class="node">
<title>ExponentialFamily</title>
<polygon fill="none" stroke="gray" stroke-dasharray="5,2" points="296.62,-180 147.12,-180 147.12,-144 296.62,-144 296.62,-180"/>
<text text-anchor="middle" x="221.88" y="-157.32" font-family="Times,serif" font-size="14.00">ExponentialFamily</text>
</g>
<!-- CoMShape&#45;&gt;ExponentialFamily -->
<g id="edge3" class="edge">
<title>CoMShape&#45;&gt;ExponentialFamily</title>
<path fill="none" stroke="gray" stroke-dasharray="5,2" d="M278.35,-36.4C276.25,-54.85 271.43,-84.51 260.88,-108 256.7,-117.29 250.71,-126.53 244.67,-134.64"/>
<polygon fill="none" stroke="gray" points="242.01,-132.35 238.59,-142.37 247.52,-136.67 242.01,-132.35"/>
</g>
<!-- Poisson -->
<g id="node3" class="node">
<title>Poisson</title>
<polygon fill="none" stroke="black" points="71.88,-36 1.88,-36 1.88,0 71.88,0 71.88,-36"/>
<text text-anchor="middle" x="36.88" y="-13.32" font-family="Times,serif" font-size="14.00">Poisson</text>
</g>
<!-- Analytic -->
<g id="node4" class="node">
<title>Analytic</title>
<polygon fill="none" stroke="gray" stroke-dasharray="5,2" points="73.75,-108 0,-108 0,-72 73.75,-72 73.75,-108"/>
<text text-anchor="middle" x="36.88" y="-85.33" font-family="Times,serif" font-size="14.00">Analytic</text>
</g>
<!-- Poisson&#45;&gt;Analytic -->
<g id="edge4" class="edge">
<title>Poisson&#45;&gt;Analytic</title>
<path fill="none" stroke="gray" stroke-dasharray="5,2" d="M36.88,-36.3C36.88,-43.59 36.88,-52.27 36.88,-60.46"/>
<polygon fill="none" stroke="gray" points="33.38,-60.38 36.88,-70.38 40.38,-60.38 33.38,-60.38"/>
</g>
<!-- Analytic&#45;&gt;Differentiable -->
<g id="edge6" class="edge">
<title>Analytic&#45;&gt;Differentiable</title>
<path fill="none" stroke="gray" stroke-dasharray="5,2" d="M45.03,-108.3C48.63,-115.93 52.94,-125.08 56.96,-133.6"/>
<polygon fill="none" stroke="gray" points="53.74,-134.97 61.17,-142.53 60.07,-131.99 53.74,-134.97"/>
</g>
<!-- LocationShape&#45;&gt;ExponentialFamily -->
<g id="edge5" class="edge">
<title>LocationShape&#45;&gt;ExponentialFamily</title>
<path fill="none" stroke="gray" stroke-dasharray="5,2" d="M198.54,-108.3C201.92,-115.93 205.97,-125.08 209.74,-133.6"/>
<polygon fill="none" stroke="gray" points="206.44,-134.79 213.69,-142.51 212.84,-131.95 206.44,-134.79"/>
</g>
</g>
</svg>
