<?xml version="1.0" encoding="UTF-8" standalone="no"?>
<!DOCTYPE svg PUBLIC "-//W3C//DTD SVG 1.1//EN"
 "http://www.w3.org/Graphics/SVG/1.1/DTD/svg11.dtd">
<!-- Generated by graphviz version 12.1.2 (0)
 -->
<!-- Pages: 1 -->
<svg width="590pt" height="188pt"
 viewBox="0.00 0.00 589.50 188.00" xmlns="http://www.w3.org/2000/svg" xmlns:xlink="http://www.w3.org/1999/xlink">
<g id="graph0" class="graph" transform="scale(1 1) rotate(0) translate(4 184)">
<polygon fill="white" stroke="none" points="-4,4 -4,-184 585.5,-184 585.5,4 -4,4"/>
<!-- Covariance -->
<g id="node1" class="node">
<title>Covariance</title>
<polygon fill="none" stroke="black" points="95.5,-36 0,-36 0,0 95.5,0 95.5,-36"/>
<text text-anchor="middle" x="47.75" y="-13.32" font-family="Times,serif" font-size="14.00">Covariance</text>
</g>
<!-- ExponentialFamily -->
<g id="node5" class="node">
<title>ExponentialFamily</title>
<polygon fill="none" stroke="gray" stroke-dasharray="5,2" points="253.5,-180 104,-180 104,-144 253.5,-144 253.5,-180"/>
<text text-anchor="middle" x="178.75" y="-157.32" font-family="Times,serif" font-size="14.00">ExponentialFamily</text>
</g>
<!-- Covariance&#45;&gt;ExponentialFamily -->
<g id="edge2" class="edge">
<title>Covariance&#45;&gt;ExponentialFamily</title>
<path fill="none" stroke="gray" stroke-dasharray="5,2" d="M41.25,-36.4C35.26,-55.66 29.29,-86.79 43.75,-108 55.53,-125.28 73.88,-136.93 93.3,-144.78"/>
<polygon fill="none" stroke="gray" points="91.82,-147.97 102.42,-148.13 94.24,-141.4 91.82,-147.97"/>
</g>
<!-- SquareMap -->
<g id="node8" class="node">
<title>SquareMap</title>
<polygon fill="none" stroke="gray" stroke-dasharray="5,2" points="151,-108 52.5,-108 52.5,-72 151,-72 151,-108"/>
<text text-anchor="middle" x="101.75" y="-85.33" font-family="Times,serif" font-size="14.00">SquareMap</text>
</g>
<!-- Covariance&#45;&gt;SquareMap -->
<g id="edge1" class="edge">
<title>Covariance&#45;&gt;SquareMap</title>
<path fill="none" stroke="gray" stroke-dasharray="5,2" d="M61.1,-36.3C67.31,-44.36 74.83,-54.11 81.71,-63.02"/>
<polygon fill="none" stroke="gray" points="78.75,-64.92 87.63,-70.7 84.29,-60.64 78.75,-64.92"/>
</g>
<!-- Euclidean -->
<g id="node2" class="node">
<title>Euclidean</title>
<polygon fill="none" stroke="black" points="222,-36 135.5,-36 135.5,0 222,0 222,-36"/>
<text text-anchor="middle" x="178.75" y="-13.32" font-family="Times,serif" font-size="14.00">Euclidean</text>
</g>
<!-- Euclidean&#45;&gt;ExponentialFamily -->
<g id="edge3" class="edge">
<title>Euclidean&#45;&gt;ExponentialFamily</title>
<path fill="none" stroke="gray" stroke-dasharray="5,2" d="M178.75,-36.41C178.75,-60.39 178.75,-103.86 178.75,-132.58"/>
<polygon fill="none" stroke="gray" points="175.25,-132.38 178.75,-142.38 182.25,-132.38 175.25,-132.38"/>
</g>
<!-- Normal -->
<g id="node3" class="node">
<title>Normal</title>
<polygon fill="none" stroke="black" points="384.38,-36 315.12,-36 315.12,0 384.38,0 384.38,-36"/>
<text text-anchor="middle" x="349.75" y="-13.32" font-family="Times,serif" font-size="14.00">Normal</text>
</g>
<!-- LocationShape -->
<g id="node6" class="node">
<title>LocationShape</title>
<polygon fill="none" stroke="gray" stroke-dasharray="5,2" points="328.25,-108 207.25,-108 207.25,-72 328.25,-72 328.25,-108"/>
<text text-anchor="middle" x="267.75" y="-85.33" font-family="Times,serif" font-size="14.00">LocationShape</text>
</g>
<!-- Normal&#45;&gt;LocationShape -->
<g id="edge4" class="edge">
<title>Normal&#45;&gt;LocationShape</title>
<path fill="none" stroke="gray" stroke-dasharray="5,2" d="M329.48,-36.3C319.62,-44.72 307.6,-54.98 296.79,-64.21"/>
<polygon fill="none" stroke="gray" points="294.56,-61.52 289.22,-70.67 299.1,-66.84 294.56,-61.52"/>
</g>
<!-- Analytic -->
<g id="node7" class="node">
<title>Analytic</title>
<polygon fill="none" stroke="gray" stroke-dasharray="5,2" points="419.62,-108 345.88,-108 345.88,-72 419.62,-72 419.62,-108"/>
<text text-anchor="middle" x="382.75" y="-85.33" font-family="Times,serif" font-size="14.00">Analytic</text>
</g>
<!-- Normal&#45;&gt;Analytic -->
<g id="edge5" class="edge">
<title>Normal&#45;&gt;Analytic</title>
<path fill="none" stroke="gray" stroke-dasharray="5,2" d="M357.91,-36.3C361.5,-43.93 365.82,-53.08 369.83,-61.6"/>
<polygon fill="none" stroke="gray" points="366.61,-62.97 374.04,-70.53 372.94,-59.99 366.61,-62.97"/>
</g>
<!-- NormalSubspace -->
<g id="node4" class="node">
<title>NormalSubspace</title>
<polygon fill="none" stroke="black" points="581.5,-36 444,-36 444,0 581.5,0 581.5,-36"/>
<text text-anchor="middle" x="512.75" y="-13.32" font-family="Times,serif" font-size="14.00">NormalSubspace</text>
</g>
<!-- Subspace -->
<g id="node9" class="node">
<title>Subspace</title>
<polygon fill="none" stroke="gray" stroke-dasharray="5,2" points="554.88,-108 470.62,-108 470.62,-72 554.88,-72 554.88,-108"/>
<text text-anchor="middle" x="512.75" y="-85.33" font-family="Times,serif" font-size="14.00">Subspace</text>
</g>
<!-- NormalSubspace&#45;&gt;Subspace -->
<g id="edge6" class="edge">
<title>NormalSubspace&#45;&gt;Subspace</title>
<path fill="none" stroke="gray" stroke-dasharray="5,2" d="M512.75,-36.3C512.75,-43.59 512.75,-52.27 512.75,-60.46"/>
<polygon fill="none" stroke="gray" points="509.25,-60.38 512.75,-70.38 516.25,-60.38 509.25,-60.38"/>
</g>
<!-- LocationShape&#45;&gt;ExponentialFamily -->
<g id="edge7" class="edge">
<title>LocationShape&#45;&gt;ExponentialFamily</title>
<path fill="none" stroke="gray" stroke-dasharray="5,2" d="M245.75,-108.3C234.84,-116.89 221.48,-127.39 209.57,-136.76"/>
<polygon fill="none" stroke="gray" points="207.69,-133.78 202,-142.72 212.02,-139.29 207.69,-133.78"/>
</g>
</g>
</svg>
