<?xml version="1.0" encoding="UTF-8" standalone="no"?>
<!DOCTYPE svg PUBLIC "-//W3C//DTD SVG 1.1//EN"
 "http://www.w3.org/Graphics/SVG/1.1/DTD/svg11.dtd">
<!-- Generated by graphviz version 12.1.2 (0)
 -->
<!-- Pages: 1 -->
<svg width="492pt" height="188pt"
 viewBox="0.00 0.00 491.88 188.00" xmlns="http://www.w3.org/2000/svg" xmlns:xlink="http://www.w3.org/1999/xlink">
<g id="graph0" class="graph" transform="scale(1 1) rotate(0) translate(4 184)">
<polygon fill="white" stroke="none" points="-4,4 -4,-184 487.88,-184 487.88,4 -4,4"/>
<!-- FactorAnalysis -->
<g id="node1" class="node">
<title>FactorAnalysis</title>
<polygon fill="none" stroke="black" points="121,-36 0,-36 0,0 121,0 121,-36"/>
<text text-anchor="middle" x="60.5" y="-13.32" font-family="Times,serif" font-size="14.00">FactorAnalysis</text>
</g>
<!-- LinearGaussianModel -->
<g id="node2" class="node">
<title>LinearGaussianModel</title>
<polygon fill="none" stroke="black" points="278.12,-108 106.88,-108 106.88,-72 278.12,-72 278.12,-108"/>
<text text-anchor="middle" x="192.5" y="-85.33" font-family="Times,serif" font-size="14.00">LinearGaussianModel</text>
</g>
<!-- FactorAnalysis&#45;&gt;LinearGaussianModel -->
<g id="edge1" class="edge">
<title>FactorAnalysis&#45;&gt;LinearGaussianModel</title>
<path fill="none" stroke="black" d="M93.47,-36.48C110.53,-45.53 131.55,-56.68 149.84,-66.38"/>
<polygon fill="none" stroke="black" points="148.14,-69.44 158.61,-71.03 151.42,-63.25 148.14,-69.44"/>
</g>
<!-- AnalyticConjugated -->
<g id="node5" class="node">
<title>AnalyticConjugated</title>
<polygon fill="none" stroke="gray" stroke-dasharray="5,2" points="270.25,-180 114.75,-180 114.75,-144 270.25,-144 270.25,-180"/>
<text text-anchor="middle" x="192.5" y="-157.32" font-family="Times,serif" font-size="14.00">AnalyticConjugated</text>
</g>
<!-- LinearGaussianModel&#45;&gt;AnalyticConjugated -->
<g id="edge2" class="edge">
<title>LinearGaussianModel&#45;&gt;AnalyticConjugated</title>
<path fill="none" stroke="gray" stroke-dasharray="5,2" d="M192.5,-108.3C192.5,-115.59 192.5,-124.27 192.5,-132.46"/>
<polygon fill="none" stroke="gray" points="189,-132.38 192.5,-142.38 196,-132.38 189,-132.38"/>
</g>
<!-- LinearModel -->
<g id="node3" class="node">
<title>LinearModel</title>
<polygon fill="none" stroke="black" points="245.5,-36 139.5,-36 139.5,0 245.5,0 245.5,-36"/>
<text text-anchor="middle" x="192.5" y="-13.32" font-family="Times,serif" font-size="14.00">LinearModel</text>
</g>
<!-- LinearModel&#45;&gt;LinearGaussianModel -->
<g id="edge3" class="edge">
<title>LinearModel&#45;&gt;LinearGaussianModel</title>
<path fill="none" stroke="black" d="M192.5,-36.3C192.5,-43.59 192.5,-52.27 192.5,-60.46"/>
<polygon fill="none" stroke="black" points="189,-60.38 192.5,-70.38 196,-60.38 189,-60.38"/>
</g>
<!-- PrincipalComponentAnalysis -->
<g id="node4" class="node">
<title>PrincipalComponentAnalysis</title>
<polygon fill="none" stroke="black" points="483.88,-36 263.12,-36 263.12,0 483.88,0 483.88,-36"/>
<text text-anchor="middle" x="373.5" y="-13.32" font-family="Times,serif" font-size="14.00">PrincipalComponentAnalysis</text>
</g>
<!-- PrincipalComponentAnalysis&#45;&gt;LinearGaussianModel -->
<g id="edge4" class="edge">
<title>PrincipalComponentAnalysis&#45;&gt;LinearGaussianModel</title>
<path fill="none" stroke="black" d="M328.29,-36.48C304.01,-45.87 273.87,-57.53 248.16,-67.47"/>
<polygon fill="none" stroke="black" points="246.92,-64.2 238.86,-71.07 249.45,-70.73 246.92,-64.2"/>
</g>
</g>
</svg>
