<?xml version="1.0" encoding="UTF-8" standalone="no"?>
<!DOCTYPE svg PUBLIC "-//W3C//DTD SVG 1.1//EN"
 "http://www.w3.org/Graphics/SVG/1.1/DTD/svg11.dtd">
<!-- Generated by graphviz version 12.1.2 (0)
 -->
<!-- Pages: 1 -->
<svg width="359pt" height="260pt"
 viewBox="0.00 0.00 358.62 260.00" xmlns="http://www.w3.org/2000/svg" xmlns:xlink="http://www.w3.org/1999/xlink">
<g id="graph0" class="graph" transform="scale(1 1) rotate(0) translate(4 256)">
<polygon fill="white" stroke="none" points="-4,4 -4,-256 354.62,-256 354.62,4 -4,4"/>
<!-- AnalyticMixture -->
<g id="node1" class="node">
<title>AnalyticMixture</title>
<polygon fill="none" stroke="black" points="241,-36 110.25,-36 110.25,0 241,0 241,-36"/>
<text text-anchor="middle" x="175.62" y="-13.32" font-family="Times,serif" font-size="14.00">AnalyticMixture</text>
</g>
<!-- DifferentiableMixture -->
<g id="node2" class="node">
<title>DifferentiableMixture</title>
<polygon fill="none" stroke="black" points="171.25,-108 0,-108 0,-72 171.25,-72 171.25,-108"/>
<text text-anchor="middle" x="85.62" y="-85.33" font-family="Times,serif" font-size="14.00">DifferentiableMixture</text>
</g>
<!-- AnalyticMixture&#45;&gt;DifferentiableMixture -->
<g id="edge1" class="edge">
<title>AnalyticMixture&#45;&gt;DifferentiableMixture</title>
<path fill="none" stroke="black" d="M153.38,-36.3C142.34,-44.89 128.83,-55.39 116.79,-64.76"/>
<polygon fill="none" stroke="black" points="114.87,-61.82 109.12,-70.72 119.17,-67.35 114.87,-61.82"/>
</g>
<!-- AnalyticConjugated -->
<g id="node6" class="node">
<title>AnalyticConjugated</title>
<polygon fill="none" stroke="gray" stroke-dasharray="5,2" points="344.38,-108 188.88,-108 188.88,-72 344.38,-72 344.38,-108"/>
<text text-anchor="middle" x="266.62" y="-85.33" font-family="Times,serif" font-size="14.00">AnalyticConjugated</text>
</g>
<!-- AnalyticMixture&#45;&gt;AnalyticConjugated -->
<g id="edge2" class="edge">
<title>AnalyticMixture&#45;&gt;AnalyticConjugated</title>
<path fill="none" stroke="gray" stroke-dasharray="5,2" d="M198.12,-36.3C209.28,-44.89 222.94,-55.39 235.12,-64.76"/>
<polygon fill="none" stroke="gray" points="232.81,-67.41 242.87,-70.73 237.08,-61.86 232.81,-67.41"/>
</g>
<!-- Mixture -->
<g id="node3" class="node">
<title>Mixture</title>
<polygon fill="none" stroke="black" points="122.12,-180 49.12,-180 49.12,-144 122.12,-144 122.12,-180"/>
<text text-anchor="middle" x="85.62" y="-157.32" font-family="Times,serif" font-size="14.00">Mixture</text>
</g>
<!-- DifferentiableMixture&#45;&gt;Mixture -->
<g id="edge3" class="edge">
<title>DifferentiableMixture&#45;&gt;Mixture</title>
<path fill="none" stroke="black" d="M85.62,-108.3C85.62,-115.59 85.62,-124.27 85.62,-132.46"/>
<polygon fill="none" stroke="black" points="82.13,-132.38 85.63,-142.38 89.13,-132.38 82.13,-132.38"/>
</g>
<!-- DifferentiableConjugated -->
<g id="node4" class="node">
<title>DifferentiableConjugated</title>
<polygon fill="none" stroke="gray" stroke-dasharray="5,2" points="350.62,-180 154.62,-180 154.62,-144 350.62,-144 350.62,-180"/>
<text text-anchor="middle" x="252.62" y="-157.32" font-family="Times,serif" font-size="14.00">DifferentiableConjugated</text>
</g>
<!-- DifferentiableMixture&#45;&gt;DifferentiableConjugated -->
<g id="edge4" class="edge">
<title>DifferentiableMixture&#45;&gt;DifferentiableConjugated</title>
<path fill="none" stroke="gray" stroke-dasharray="5,2" d="M127.34,-108.48C149.54,-117.79 177.05,-129.32 200.63,-139.21"/>
<polygon fill="none" stroke="gray" points="199.19,-142.4 209.76,-143.03 201.89,-135.94 199.19,-142.4"/>
</g>
<!-- Harmonium -->
<g id="node5" class="node">
<title>Harmonium</title>
<polygon fill="none" stroke="gray" stroke-dasharray="5,2" points="136,-252 35.25,-252 35.25,-216 136,-216 136,-252"/>
<text text-anchor="middle" x="85.62" y="-229.32" font-family="Times,serif" font-size="14.00">Harmonium</text>
</g>
<!-- Mixture&#45;&gt;Harmonium -->
<g id="edge5" class="edge">
<title>Mixture&#45;&gt;Harmonium</title>
<path fill="none" stroke="gray" stroke-dasharray="5,2" d="M85.62,-180.3C85.62,-187.59 85.62,-196.27 85.62,-204.46"/>
<polygon fill="none" stroke="gray" points="82.13,-204.38 85.63,-214.38 89.13,-204.38 82.13,-204.38"/>
</g>
<!-- AnalyticConjugated&#45;&gt;DifferentiableConjugated -->
<g id="edge6" class="edge">
<title>AnalyticConjugated&#45;&gt;DifferentiableConjugated</title>
<path fill="none" stroke="gray" stroke-dasharray="5,2" d="M263.16,-108.3C261.69,-115.68 259.93,-124.48 258.28,-132.75"/>
<polygon fill="none" stroke="gray" points="254.87,-131.92 256.34,-142.41 261.74,-133.29 254.87,-131.92"/>
</g>
</g>
</svg>
