<?xml version="1.0" encoding="UTF-8" standalone="no"?>
<!DOCTYPE svg PUBLIC "-//W3C//DTD SVG 1.1//EN"
 "http://www.w3.org/Graphics/SVG/1.1/DTD/svg11.dtd">
<!-- Generated by graphviz version 12.1.2 (0)
 -->
<!-- Pages: 1 -->
<svg width="211pt" height="260pt"
 viewBox="0.00 0.00 210.62 260.00" xmlns="http://www.w3.org/2000/svg" xmlns:xlink="http://www.w3.org/1999/xlink">
<g id="graph0" class="graph" transform="scale(1 1) rotate(0) translate(4 256)">
<polygon fill="white" stroke="none" points="-4,4 -4,-256 206.62,-256 206.62,4 -4,4"/>
<!-- AffineMap -->
<g id="node1" class="node">
<title>AffineMap</title>
<polygon fill="none" stroke="black" points="88.75,-108 0,-108 0,-72 88.75,-72 88.75,-108"/>
<text text-anchor="middle" x="44.38" y="-85.33" font-family="Times,serif" font-size="14.00">AffineMap</text>
</g>
<!-- Pair -->
<g id="node5" class="node">
<title>Pair</title>
<polygon fill="none" stroke="gray" stroke-dasharray="5,2" points="84.38,-180 30.38,-180 30.38,-144 84.38,-144 84.38,-180"/>
<text text-anchor="middle" x="57.38" y="-157.32" font-family="Times,serif" font-size="14.00">Pair</text>
</g>
<!-- AffineMap&#45;&gt;Pair -->
<g id="edge1" class="edge">
<title>AffineMap&#45;&gt;Pair</title>
<path fill="none" stroke="gray" stroke-dasharray="5,2" d="M47.59,-108.3C48.96,-115.68 50.59,-124.48 52.13,-132.75"/>
<polygon fill="none" stroke="gray" points="48.65,-133.21 53.92,-142.41 55.54,-131.94 48.65,-133.21"/>
</g>
<!-- LinearMap -->
<g id="node2" class="node">
<title>LinearMap</title>
<polygon fill="none" stroke="black" points="200,-108 106.75,-108 106.75,-72 200,-72 200,-108"/>
<text text-anchor="middle" x="153.38" y="-85.33" font-family="Times,serif" font-size="14.00">LinearMap</text>
</g>
<!-- Manifold -->
<g id="node4" class="node">
<title>Manifold</title>
<polygon fill="none" stroke="gray" stroke-dasharray="5,2" points="137.88,-252 58.88,-252 58.88,-216 137.88,-216 137.88,-252"/>
<text text-anchor="middle" x="98.38" y="-229.32" font-family="Times,serif" font-size="14.00">Manifold</text>
</g>
<!-- LinearMap&#45;&gt;Manifold -->
<g id="edge2" class="edge">
<title>LinearMap&#45;&gt;Manifold</title>
<path fill="none" stroke="gray" stroke-dasharray="5,2" d="M146.63,-108.41C137.26,-132.6 120.21,-176.64 109.09,-205.35"/>
<polygon fill="none" stroke="gray" points="105.9,-203.89 105.55,-214.48 112.42,-206.42 105.9,-203.89"/>
</g>
<!-- SquareMap -->
<g id="node3" class="node">
<title>SquareMap</title>
<polygon fill="none" stroke="black" points="202.62,-36 104.12,-36 104.12,0 202.62,0 202.62,-36"/>
<text text-anchor="middle" x="153.38" y="-13.32" font-family="Times,serif" font-size="14.00">SquareMap</text>
</g>
<!-- SquareMap&#45;&gt;LinearMap -->
<g id="edge3" class="edge">
<title>SquareMap&#45;&gt;LinearMap</title>
<path fill="none" stroke="black" d="M153.38,-36.3C153.38,-43.59 153.38,-52.27 153.38,-60.46"/>
<polygon fill="none" stroke="black" points="149.88,-60.38 153.38,-70.38 156.88,-60.38 149.88,-60.38"/>
</g>
<!-- Pair&#45;&gt;Manifold -->
<g id="edge4" class="edge">
<title>Pair&#45;&gt;Manifold</title>
<path fill="none" stroke="gray" stroke-dasharray="5,2" d="M67.51,-180.3C72.08,-188.1 77.58,-197.49 82.66,-206.17"/>
<polygon fill="none" stroke="gray" points="79.52,-207.73 87.59,-214.59 85.56,-204.19 79.52,-207.73"/>
</g>
</g>
</svg>
