<?xml version="1.0" encoding="UTF-8" standalone="no"?>
<!DOCTYPE svg PUBLIC "-//W3C//DTD SVG 1.1//EN"
 "http://www.w3.org/Graphics/SVG/1.1/DTD/svg11.dtd">
<!-- Generated by graphviz version 12.1.2 (0)
 -->
<!-- Pages: 1 -->
<svg width="307pt" height="116pt"
 viewBox="0.00 0.00 307.12 116.00" xmlns="http://www.w3.org/2000/svg" xmlns:xlink="http://www.w3.org/1999/xlink">
<g id="graph0" class="graph" transform="scale(1 1) rotate(0) translate(4 112)">
<polygon fill="white" stroke="none" points="-4,4 -4,-112 303.12,-112 303.12,4 -4,4"/>
<!-- Coordinates -->
<g id="node1" class="node">
<title>Coordinates</title>
<polygon fill="none" stroke="black" points="102.25,-108 0,-108 0,-72 102.25,-72 102.25,-108"/>
<text text-anchor="middle" x="51.12" y="-85.33" font-family="Times,serif" font-size="14.00">Coordinates</text>
</g>
<!-- Dual -->
<g id="node2" class="node">
<title>Dual</title>
<polygon fill="none" stroke="black" points="78.12,-36 24.12,-36 24.12,0 78.12,0 78.12,-36"/>
<text text-anchor="middle" x="51.12" y="-13.32" font-family="Times,serif" font-size="14.00">Dual</text>
</g>
<!-- Dual&#45;&gt;Coordinates -->
<g id="edge1" class="edge">
<title>Dual&#45;&gt;Coordinates</title>
<path fill="none" stroke="black" d="M51.12,-36.3C51.12,-43.59 51.12,-52.27 51.12,-60.46"/>
<polygon fill="none" stroke="black" points="47.63,-60.38 51.13,-70.38 54.63,-60.38 47.63,-60.38"/>
</g>
<!-- Manifold -->
<g id="node3" class="node">
<title>Manifold</title>
<polygon fill="none" stroke="black" points="226.62,-108 147.62,-108 147.62,-72 226.62,-72 226.62,-108"/>
<text text-anchor="middle" x="187.12" y="-85.33" font-family="Times,serif" font-size="14.00">Manifold</text>
</g>
<!-- Pair -->
<g id="node4" class="node">
<title>Pair</title>
<polygon fill="none" stroke="black" points="168.12,-36 114.12,-36 114.12,0 168.12,0 168.12,-36"/>
<text text-anchor="middle" x="141.12" y="-13.32" font-family="Times,serif" font-size="14.00">Pair</text>
</g>
<!-- Pair&#45;&gt;Manifold -->
<g id="edge2" class="edge">
<title>Pair&#45;&gt;Manifold</title>
<path fill="none" stroke="black" d="M152.5,-36.3C157.68,-44.19 163.93,-53.7 169.68,-62.45"/>
<polygon fill="none" stroke="black" points="166.64,-64.2 175.05,-70.63 172.49,-60.35 166.64,-64.2"/>
</g>
<!-- Point -->
<g id="node5" class="node">
<title>Point</title>
<polygon fill="none" stroke="black" points="299.12,-108 245.12,-108 245.12,-72 299.12,-72 299.12,-108"/>
<text text-anchor="middle" x="272.12" y="-85.33" font-family="Times,serif" font-size="14.00">Point</text>
</g>
<!-- Triple -->
<g id="node6" class="node">
<title>Triple</title>
<polygon fill="none" stroke="black" points="244.12,-36 186.12,-36 186.12,0 244.12,0 244.12,-36"/>
<text text-anchor="middle" x="215.12" y="-13.32" font-family="Times,serif" font-size="14.00">Triple</text>
</g>
<!-- Triple&#45;&gt;Manifold -->
<g id="edge3" class="edge">
<title>Triple&#45;&gt;Manifold</title>
<path fill="none" stroke="black" d="M208.2,-36.3C205.19,-43.85 201.57,-52.88 198.2,-61.32"/>
<polygon fill="none" stroke="black" points="194.99,-59.91 194.53,-70.49 201.49,-62.51 194.99,-59.91"/>
</g>
</g>
</svg>
