<?xml version="1.0" encoding="UTF-8" standalone="no"?>
<!DOCTYPE svg PUBLIC "-//W3C//DTD SVG 1.1//EN"
 "http://www.w3.org/Graphics/SVG/1.1/DTD/svg11.dtd">
<!-- Generated by graphviz version 12.1.2 (0)
 -->
<!-- Pages: 1 -->
<svg width="950pt" height="44pt"
 viewBox="0.00 0.00 949.75 44.00" xmlns="http://www.w3.org/2000/svg" xmlns:xlink="http://www.w3.org/1999/xlink">
<g id="graph0" class="graph" transform="scale(1 1) rotate(0) translate(4 40)">
<polygon fill="white" stroke="none" points="-4,4 -4,-40 945.75,-40 945.75,4 -4,4"/>
<!-- Diagonal -->
<g id="node1" class="node">
<title>Diagonal</title>
<polygon fill="none" stroke="black" points="743.25,-36 664.25,-36 664.25,0 743.25,0 743.25,-36"/>
<text text-anchor="middle" x="703.75" y="-13.32" font-family="Times,serif" font-size="14.00">Diagonal</text>
</g>
<!-- PositiveDefinite -->
<g id="node4" class="node">
<title>PositiveDefinite</title>
<polygon fill="none" stroke="black" points="628.25,-36 499.75,-36 499.75,0 628.25,0 628.25,-36"/>
<text text-anchor="middle" x="564" y="-13.32" font-family="Times,serif" font-size="14.00">PositiveDefinite</text>
</g>
<!-- Diagonal&#45;&gt;PositiveDefinite -->
<g id="edge1" class="edge">
<title>Diagonal&#45;&gt;PositiveDefinite</title>
<path fill="none" stroke="black" d="M664.01,-18C656.46,-18 648.31,-18 640.04,-18"/>
<polygon fill="none" stroke="black" points="640.25,-14.5 630.25,-18 640.25,-21.5 640.25,-14.5"/>
</g>
<!-- Identity -->
<g id="node2" class="node">
<title>Identity</title>
<polygon fill="none" stroke="black" points="941.75,-36 869.5,-36 869.5,0 941.75,0 941.75,-36"/>
<text text-anchor="middle" x="905.62" y="-13.32" font-family="Times,serif" font-size="14.00">Identity</text>
</g>
<!-- Scale -->
<g id="node6" class="node">
<title>Scale</title>
<polygon fill="none" stroke="black" points="833.5,-36 779.25,-36 779.25,0 833.5,0 833.5,-36"/>
<text text-anchor="middle" x="806.38" y="-13.32" font-family="Times,serif" font-size="14.00">Scale</text>
</g>
<!-- Identity&#45;&gt;Scale -->
<g id="edge2" class="edge">
<title>Identity&#45;&gt;Scale</title>
<path fill="none" stroke="black" d="M869.24,-18C861.36,-18 852.97,-18 845.01,-18"/>
<polygon fill="none" stroke="black" points="845.25,-14.5 835.25,-18 845.25,-21.5 845.25,-14.5"/>
</g>
<!-- MatrixRep -->
<g id="node3" class="node">
<title>MatrixRep</title>
<polygon fill="none" stroke="black" points="91.75,-36 0,-36 0,0 91.75,0 91.75,-36"/>
<text text-anchor="middle" x="45.88" y="-13.32" font-family="Times,serif" font-size="14.00">MatrixRep</text>
</g>
<!-- Symmetric -->
<g id="node8" class="node">
<title>Symmetric</title>
<polygon fill="none" stroke="black" points="463.75,-36 369.75,-36 369.75,0 463.75,0 463.75,-36"/>
<text text-anchor="middle" x="416.75" y="-13.32" font-family="Times,serif" font-size="14.00">Symmetric</text>
</g>
<!-- PositiveDefinite&#45;&gt;Symmetric -->
<g id="edge3" class="edge">
<title>PositiveDefinite&#45;&gt;Symmetric</title>
<path fill="none" stroke="black" d="M499.29,-18C491.3,-18 483.17,-18 475.28,-18"/>
<polygon fill="none" stroke="black" points="475.46,-14.5 465.46,-18 475.46,-21.5 475.46,-14.5"/>
</g>
<!-- Rectangular -->
<g id="node5" class="node">
<title>Rectangular</title>
<polygon fill="none" stroke="black" points="230.75,-36 127.75,-36 127.75,0 230.75,0 230.75,-36"/>
<text text-anchor="middle" x="179.25" y="-13.32" font-family="Times,serif" font-size="14.00">Rectangular</text>
</g>
<!-- Rectangular&#45;&gt;MatrixRep -->
<g id="edge4" class="edge">
<title>Rectangular&#45;&gt;MatrixRep</title>
<path fill="none" stroke="black" d="M127.46,-18C119.6,-18 111.44,-18 103.46,-18"/>
<polygon fill="none" stroke="black" points="103.48,-14.5 93.48,-18 103.48,-21.5 103.48,-14.5"/>
</g>
<!-- Scale&#45;&gt;Diagonal -->
<g id="edge5" class="edge">
<title>Scale&#45;&gt;Diagonal</title>
<path fill="none" stroke="black" d="M778.94,-18C771.49,-18 763.14,-18 754.79,-18"/>
<polygon fill="none" stroke="black" points="755.02,-14.5 745.02,-18 755.02,-21.5 755.02,-14.5"/>
</g>
<!-- Square -->
<g id="node7" class="node">
<title>Square</title>
<polygon fill="none" stroke="black" points="333.75,-36 266.75,-36 266.75,0 333.75,0 333.75,-36"/>
<text text-anchor="middle" x="300.25" y="-13.32" font-family="Times,serif" font-size="14.00">Square</text>
</g>
<!-- Square&#45;&gt;Rectangular -->
<g id="edge6" class="edge">
<title>Square&#45;&gt;Rectangular</title>
<path fill="none" stroke="black" d="M266.42,-18C258.85,-18 250.56,-18 242.2,-18"/>
<polygon fill="none" stroke="black" points="242.34,-14.5 232.34,-18 242.34,-21.5 242.34,-14.5"/>
</g>
<!-- Symmetric&#45;&gt;Square -->
<g id="edge7" class="edge">
<title>Symmetric&#45;&gt;Square</title>
<path fill="none" stroke="black" d="M369.51,-18C361.5,-18 353.2,-18 345.25,-18"/>
<polygon fill="none" stroke="black" points="345.46,-14.5 335.46,-18 345.46,-21.5 345.46,-14.5"/>
</g>
</g>
</svg>
