<?xml version="1.0" encoding="UTF-8" standalone="no"?>
<!DOCTYPE svg PUBLIC "-//W3C//DTD SVG 1.1//EN"
 "http://www.w3.org/Graphics/SVG/1.1/DTD/svg11.dtd">
<!-- Generated by graphviz version 12.1.2 (0)
 -->
<!-- Pages: 1 -->
<svg width="601pt" height="116pt"
 viewBox="0.00 0.00 601.38 116.00" xmlns="http://www.w3.org/2000/svg" xmlns:xlink="http://www.w3.org/1999/xlink">
<g id="graph0" class="graph" transform="scale(1 1) rotate(0) translate(4 112)">
<polygon fill="white" stroke="none" points="-4,4 -4,-112 597.38,-112 597.38,4 -4,4"/>
<!-- ComposedSubspace -->
<g id="node1" class="node">
<title>ComposedSubspace</title>
<polygon fill="none" stroke="black" points="158.5,-36 0,-36 0,0 158.5,0 158.5,-36"/>
<text text-anchor="middle" x="79.25" y="-13.32" font-family="Times,serif" font-size="14.00">ComposedSubspace</text>
</g>
<!-- Subspace -->
<g id="node4" class="node">
<title>Subspace</title>
<polygon fill="none" stroke="black" points="361.38,-108 277.12,-108 277.12,-72 361.38,-72 361.38,-108"/>
<text text-anchor="middle" x="319.25" y="-85.33" font-family="Times,serif" font-size="14.00">Subspace</text>
</g>
<!-- ComposedSubspace&#45;&gt;Subspace -->
<g id="edge1" class="edge">
<title>ComposedSubspace&#45;&gt;Subspace</title>
<path fill="none" stroke="black" d="M139.19,-36.48C178.11,-47.84 228.39,-62.5 265.92,-73.45"/>
<polygon fill="none" stroke="black" points="264.61,-76.71 275.19,-76.15 266.57,-69.99 264.61,-76.71"/>
</g>
<!-- IdentitySubspace -->
<g id="node2" class="node">
<title>IdentitySubspace</title>
<polygon fill="none" stroke="black" points="317.5,-36 177,-36 177,0 317.5,0 317.5,-36"/>
<text text-anchor="middle" x="247.25" y="-13.32" font-family="Times,serif" font-size="14.00">IdentitySubspace</text>
</g>
<!-- IdentitySubspace&#45;&gt;Subspace -->
<g id="edge2" class="edge">
<title>IdentitySubspace&#45;&gt;Subspace</title>
<path fill="none" stroke="black" d="M265.05,-36.3C273.53,-44.55 283.84,-54.57 293.18,-63.65"/>
<polygon fill="none" stroke="black" points="290.71,-66.14 300.32,-70.6 295.59,-61.12 290.71,-66.14"/>
</g>
<!-- PairSubspace -->
<g id="node3" class="node">
<title>PairSubspace</title>
<polygon fill="none" stroke="black" points="448.62,-36 335.88,-36 335.88,0 448.62,0 448.62,-36"/>
<text text-anchor="middle" x="392.25" y="-13.32" font-family="Times,serif" font-size="14.00">PairSubspace</text>
</g>
<!-- PairSubspace&#45;&gt;Subspace -->
<g id="edge3" class="edge">
<title>PairSubspace&#45;&gt;Subspace</title>
<path fill="none" stroke="black" d="M374.21,-36.3C365.52,-44.63 354.94,-54.78 345.39,-63.93"/>
<polygon fill="none" stroke="black" points="343.23,-61.16 338.43,-70.61 348.07,-66.21 343.23,-61.16"/>
</g>
<!-- TripleSubspace -->
<g id="node5" class="node">
<title>TripleSubspace</title>
<polygon fill="none" stroke="black" points="593.38,-36 467.12,-36 467.12,0 593.38,0 593.38,-36"/>
<text text-anchor="middle" x="530.25" y="-13.32" font-family="Times,serif" font-size="14.00">TripleSubspace</text>
</g>
<!-- TripleSubspace&#45;&gt;Subspace -->
<g id="edge4" class="edge">
<title>TripleSubspace&#45;&gt;Subspace</title>
<path fill="none" stroke="black" d="M477.55,-36.48C445.42,-47.14 404.48,-60.72 372.29,-71.4"/>
<polygon fill="none" stroke="black" points="371.56,-67.96 363.17,-74.43 373.76,-74.6 371.56,-67.96"/>
</g>
</g>
</svg>
